# xmcd
#
# Track frame offsets:
#	150
#	16019
#	25926
#	41832
#	57408
#	78857
#	90532
#	107269
#	124030
#	130322
#	144077
#	156519
#
# Disc length: 2303 seconds
# Revision: 0
# Processed by: cddbd v1.5.2PL0 Copyright (c) Steve Scherf et al.
# Submitted via: dBpowerAMP V12.0
#
DISCID=8e08fd0c
DTITLE=Various Artist - Love Hard, Work Hard, Play Hard
DYEAR=2019
DGENRE=Bluegrass
TTITLE0=Deanie Richardson - Black and White Rag
TTITLE1=Deanie Richardson - Meadow Dancing
TTITLE2=Deanie Richardson feat. Ronnie Bowman - Stoney Mae
TTITLE3=Deanie Richardson - Soppin' the Gravy
TTITLE4=Deanie Richardson feat. Patty Loveless - Jack of Diamonds
TTITLE5=Deanie Richardson - Chickens in the House
TTITLE6=Deanie Richardson - Kentucky Waltz
TTITLE7=Deanie Richardson - Murchadh Tóbha Churraig Dhuibh (Murdo Tòbha?s Black Cap)/Dhannsadh Gun Dannsadh/Humors of Tulla
TTITLE8=Deanie Richardson - Lost Indian
TTITLE9=Deanie Richardson feat. Dale Ann Bradley - Tears Will Be the Chaser for Your Wine
TTITLE10=Deanie Richardson - St. Anne's Reel
TTITLE11=Deanie Richardson feat. Amanda McKenney - East Virginia Blues
EXTD=
EXTT0=
EXTT1=
EXTT2=
EXTT3=
EXTT4=
EXTT5=
EXTT6=
EXTT7=
EXTT8=
EXTT9=
EXTT10=
EXTT11=
PLAYORDER=
